<svg aria-hidden="true" style="position: absolute; width: 0; height: 0; overflow: hidden;" version="1.1" xmlns="http://www.w3.org/2000/svg" xmlns:xlink="http://www.w3.org/1999/xlink">
<defs>
<symbol id="icon-youtube" viewBox="0 0 46 32">
<path d="M18.286 22.857l11.863-6.857-11.863-6.857v13.714zM44.709 4.96c0.297 1.074 0.503 2.514 0.64 4.343 0.16 1.829 0.229 3.406 0.229 4.777l0.137 1.92c0 5.006-0.366 8.686-1.006 11.040-0.571 2.057-1.897 3.383-3.954 3.954-1.074 0.297-3.040 0.503-6.057 0.64-2.971 0.16-5.691 0.229-8.206 0.229l-3.634 0.137c-9.577 0-15.543-0.366-17.897-1.006-1.959-0.481-3.473-1.995-3.947-3.918l-0.008-0.037c-0.297-1.074-0.503-2.514-0.64-4.343-0.16-1.829-0.229-3.406-0.229-4.777l-0.137-1.92c0-5.006 0.366-8.686 1.006-11.040 0.571-2.057 1.897-3.383 3.954-3.954 1.811-0.384 3.9-0.616 6.039-0.64l0.018-0c2.971-0.16 5.691-0.229 8.206-0.229l3.634-0.137c9.577 0 15.543 0.366 17.897 1.006 2.057 0.571 3.383 1.897 3.954 3.954z"></path>
</symbol>
<symbol id="icon-twitter" viewBox="0 0 41 32">
<path d="M40.395 3.765c-1.449 0.659-3.012 1.092-4.631 1.299 1.667-1.016 2.919-2.573 3.523-4.423l0.016-0.057c-1.562 0.941-3.294 1.6-5.12 1.976-1.479-1.621-3.601-2.634-5.959-2.634-4.449 0-8.056 3.607-8.056 8.056 0 0.688 0.086 1.356 0.249 1.994l-0.012-0.056c-6.724-0.352-12.637-3.546-16.608-8.392l-0.032-0.041c-0.7 1.163-1.113 2.566-1.113 4.066 0 2.784 1.426 5.236 3.587 6.664l0.030 0.018c-1.336 0-2.579-0.376-3.671-0.941v0.056c0.003 3.895 2.756 7.146 6.423 7.915l0.053 0.009c-1.186 0.32-2.428 0.376-3.633 0.132 1.054 3.235 4.013 5.543 7.522 5.609l0.008 0c-2.71 2.165-6.186 3.474-9.968 3.474-0.7 0-1.389-0.045-2.065-0.132l0.080 0.008c3.494 2.278 7.77 3.633 12.363 3.633 0.008 0 0.016 0 0.024 0h-0.001c14.833 0 22.984-12.311 22.984-22.984l-0.019-1.054c1.591-1.156 2.929-2.548 3.991-4.139l0.037-0.059z"></path>
</symbol>
<symbol id="icon-trooper" viewBox="0 0 27 32">
<path d="M23.902 7.105c0-3.135-2.482-6.139-5.616-6.661-3.461-0.588-6.922-0.588-10.318 0-3.069 0.522-5.616 3.527-5.616 6.661v1.959h21.551v-1.959zM26.253 17.352v-3.396c0-1.567-1.698-1.829-2.286-2.22h-0.065v-0.98h-21.551v0.98h-0.065l-1.241 0.588c-0.653 0.327-1.045 0.914-1.045 1.633v3.396c0 0.718 0.392 1.306 1.045 1.633l1.241 0.588c-0.235 1.253-0.814 2.344-1.635 3.202l0.002-0.002c-0.327 0.327-0.327 0.849 0 1.241l1.437 1.502c0.522 0.522 0.457 0.849 1.502 3.788 0.261 0.718 1.045 1.175 1.763 0.98 1.306-0.261 2.482-0.522 3.657-0.653 0.392 1.11 1.371 1.763 2.416 1.763h3.396c1.11 0 2.090-0.653 2.482-1.763 1.175 0.131 2.416 0.392 3.657 0.653 0.784 0.196 1.567-0.261 1.763-0.98 0.327-1.045 0.784-2.416 1.045-3.069 0.196-0.653 0.588-0.849 1.894-2.22 0.327-0.327 0.327-0.849 0-1.241-0.849-0.849-1.437-1.959-1.633-3.2 0.522-0.392 2.22-0.653 2.22-2.22zM2.351 18.201l-0.784-0.392c-0.196-0.065-0.327-0.261-0.327-0.522v-3.396c0-0.196 0.131-0.392 0.327-0.522l0.784-0.327v5.159zM4.571 13.629c-0.196-0.457 0.131-0.98 0.522-0.98h5.943c0.457 0 0.718 0.522 0.522 0.98-0.653 1.567-2.024 2.547-3.527 2.547s-2.808-0.98-3.461-2.547zM6.531 27.54c-0.721 0-1.306-0.585-1.306-1.306v0c0-0.718 0.588-1.306 1.306-1.306 0.721 0 1.306 0.585 1.306 1.306v0c0 0.721-0.585 1.306-1.306 1.306v0zM14.825 30.087h-3.396c-1.045 0-1.698-1.175-1.11-2.090l1.698-2.482c0.522-0.784 1.633-0.784 2.155 0l1.698 2.482c0.653 0.849 0 2.090-1.045 2.090zM18.155 21.27c-0.196 0.261-0.588 0.327-0.914 0.131-4.18-3.331-8.098-0.131-8.294 0-0.261 0.196-0.653 0.196-0.914-0.065-0.196-0.261-0.196-0.653 0.065-0.914 0.065-0.065 4.833-4.049 9.861 0 0.392 0.131 0.392 0.588 0.196 0.849zM19.722 27.54c-0.721 0-1.306-0.585-1.306-1.306v0c0-0.718 0.588-1.306 1.306-1.306 0.721 0 1.306 0.585 1.306 1.306v0c-0.065 0.718-0.653 1.306-1.306 1.306zM21.682 13.629c-0.653 1.567-2.024 2.547-3.527 2.547s-2.873-0.98-3.527-2.547c-0.196-0.457 0.131-0.98 0.522-0.98h5.943c0.457 0 0.784 0.522 0.588 0.98zM25.012 17.352c0 0.522-0.588 0.588-1.11 0.849v-5.159c0.457 0.261 1.11 0.327 1.11 0.849v3.461z"></path>
</symbol>
<symbol id="icon-tie-fighter" viewBox="0 0 36 32">
<path d="M2.457 0h-1.491l-0.743 15.879 0.743 15.879h1.491l0.598-13.041 5.887 1.038v-7.752l-5.887 1.038-0.598-13.041zM35.26 0h-1.491l-0.598 13.041-5.887-1.038v7.752l5.887-1.038 0.598 13.048h1.491l0.743-15.879-0.743-15.885zM15.058 7.004l-4.625 3.285v11.025l4.625 3.285h6.189l4.619-3.285v-10.952l-4.619-3.279h-6.189v-0.072zM22.738 15.879c-0.014 2.549-2.076 4.611-4.624 4.625h-0.001c-2.549-0.014-4.611-2.076-4.625-4.624v-0.001c0.014-2.549 2.076-4.611 4.624-4.625h0.001c2.549 0.014 4.611 2.076 4.625 4.624v0.001z"></path>
<path d="M18.113 19.013c1.731 0 3.134-1.403 3.134-3.134s-1.403-3.134-3.134-3.134v0c-1.731 0-3.134 1.403-3.134 3.134s1.403 3.134 3.134 3.134v0z"></path>
</symbol>
<symbol id="icon-screwdriver" viewBox="0 0 46 32">
<path d="M42.057 28.404c0.088-0.1 0.142-0.232 0.142-0.377s-0.054-0.277-0.143-0.378l0.001 0.001-5.272-5.272c-0.1-0.088-0.232-0.142-0.377-0.142s-0.277 0.054-0.378 0.143l0.001-0.001-0.091 0.19c-0.088 0.1-0.142 0.232-0.142 0.377s0.054 0.277 0.143 0.378l-0.001-0.001 5.272 5.272c0.19 0.183 0.564 0.183 0.754 0l0.091-0.19zM42.72 27.086c0.183 0.19 0.564 0.19 0.747 0l0.099-0.091c0.090-0.101 0.145-0.234 0.145-0.381s-0.055-0.28-0.146-0.381l0 0.001-5.272-5.265c-0.1-0.088-0.232-0.142-0.377-0.142s-0.277 0.054-0.378 0.143l0.001-0.001-0.091 0.091c-0.090 0.101-0.145 0.234-0.145 0.381s0.055 0.28 0.146 0.381l-0-0.001 5.272 5.265zM35.375 23.886c-0.1-0.088-0.232-0.142-0.377-0.142s-0.277 0.054-0.378 0.143l0.001-0.001-0.091 0.091c-0.090 0.101-0.145 0.234-0.145 0.381s0.055 0.28 0.146 0.381l-0-0.001 5.272 5.265c0.183 0.19 0.564 0.19 0.747 0l0.099-0.091c0.090-0.101 0.145-0.234 0.145-0.381s-0.055-0.28-0.146-0.381l0 0.001-5.272-5.265zM45.257 28.495c-0.133-0.131-0.316-0.212-0.518-0.212s-0.385 0.081-0.518 0.212l0-0-2.164 2.171c-0.129 0.133-0.208 0.314-0.208 0.514s0.079 0.381 0.208 0.514l-0-0c0.282 0.29 0.754 0.29 1.036 0l2.164-2.164c0.131-0.133 0.212-0.316 0.212-0.518s-0.081-0.385-0.212-0.518l0 0zM35.939 18.613l0.19-0.19c0.129-0.133 0.208-0.314 0.208-0.514s-0.079-0.381-0.208-0.514l-0.19-0.19c-0.133-0.131-0.316-0.212-0.518-0.212s-0.385 0.081-0.518 0.212l-0.19 0.19-2.537-2.545-2.164 5.364 0.937 0.945-0.183 0.183c-0.131 0.133-0.212 0.316-0.212 0.518s0.081 0.385 0.212 0.518l-0-0 0.183 0.19c0.282 0.282 0.754 0.282 1.036 0l0.19-0.19 0.937 0.945 3.771-3.764-0.945-0.945zM0.83 27.84l0.564 0.564-1.128 1.128 2.438 2.453 1.143-1.135 0.457 0.564 3.581-3.581-3.581-3.474-3.474 3.482zM6.438 22.194l-1.067 1.067 3.535 3.528 1.067-1.067-3.535-3.528zM8.556 20.137l-1.067 1.067 3.528 3.528 1.067-1.067-3.528-3.528zM10.133 17.554l-1.067 1.067 4.526 4.526 1.067-1.067-4.526-4.526zM25.585 10.24l-1.79 1.783 5.562 5.935 1.219-3.017-4.99-4.701zM21.821 6.75l-7.162-6.674-1.12 1.036 6.781 7.162 1.501-1.516zM31.893 2.141c0.381-0.472 0.381-1.219 0-1.6l-0.198-0.19c-0.472-0.465-1.219-0.465-1.6 0l-17.501 17.509 1.79 1.79 17.509-17.509z"></path>
</symbol>
<symbol id="icon-logo" viewBox="0 0 72 32">
<path d="M0 10h10.57c0.3 0 3.25 0.5 1.28-1.3-2.17-1.96-2.41-3.6-2.49-4.9-0.070-1.3 1.21-3.8 3.82-3.8h21.46v4.5h-6.63v10.5h-4.92v-10.5h-6.2c-0.9 0-2.1 0-1.030 1l1.88 2.22c1.23 1.38 0.83 2.060 0.83 3.11 0 2.6-2.18 4.17-3.88 4.17h-14.69v-5zM45.51 0h-7.93l-4.45 15h4.95l0.8-2.1h5.23l0.77 2.1h4.85l-4.23-15zM40 9.3l1.7-5.5 1.61 5.5h-3.31zM65.4 10c-1.9 0-1.9-0.7-1.9-0.7 1.63 0 3.080-2.37 3.080-4.8s-2.38-4.5-4.29-4.5h-10.68v15h5.42v-5s2.31 2.7 3.52 3.8c1.2 1.1 1.3 1.2 2.94 1.2h8.5v-5h-6.6zM60.48 6.5h-3.44v-2.7h3.44c1.58 0 1.85 2.7 0 2.7zM0 16.92l4.44 14.99h4.52l2.18-7.1 1.94 7.1h4.42l4.42-15h-4.82l-1.52 5-1.5-5h-5.83l-1.3 5-1.4-5.010h-5.55zM33.3 17h-7.93l-4.45 15h4.95l0.8-2.1h5.23l0.77 2.1h4.85l-4.22-15zM27.78 26.3l1.7-5.5 1.61 5.5h-3.31zM65.5 21.41h6.5v-4.5h-10.14c-2.61 0-3.74 2.6-3.66 3.9 0.070 1.3 0.31 2.94 2.48 4.9 1.98 1.8-0.98 1.3-1.28 1.3h-5.84c-1.21 0-1.93-0.72-1.93-0.72 1.64 0 3.090-2.37 3.090-4.8s-2.39-4.49-4.29-4.49h-10.67v15h5.42v-5c0 0 2.31 2.7 3.51 3.8 1.21 1.1 1.31 1.2 2.94 1.2l11.85-0.080c1.71 0 4.3-1.58 4.3-4.18 0-1.040 0.020-1.62-1.22-3.010l-1.87-2.22c-1.080-1-0.1-1.1 0.8-1.1zM48.61 23.5h-3.44v-2.7h3.44c1.58 0 1.85 2.7 0 2.7z"></path>
</symbol>
<symbol id="icon-inst" viewBox="0 0 32 32">
<path d="M9.28 0h13.44c5.12 0 9.28 4.16 9.28 9.28v13.44c0 5.125-4.155 9.28-9.28 9.28h-13.44c-5.125 0-9.28-4.155-9.28-9.28v-13.44c0-5.125 4.155-9.28 9.28-9.28v0zM8.96 3.2c-3.181 0-5.76 2.579-5.76 5.76v0 14.080c0 3.181 2.579 5.76 5.76 5.76v0h14.080c3.181 0 5.76-2.579 5.76-5.76v0-14.080c0-3.181-2.579-5.76-5.76-5.76v0h-14.080zM24.4 5.6c1.105 0 2 0.895 2 2s-0.895 2-2 2v0c-1.105 0-2-0.895-2-2s0.895-2 2-2v0zM16 8c4.418 0 8 3.582 8 8s-3.582 8-8 8v0c-4.418 0-8-3.582-8-8s3.582-8 8-8v0zM16 11.2c-2.651 0-4.8 2.149-4.8 4.8s2.149 4.8 4.8 4.8v0c2.651 0 4.8-2.149 4.8-4.8s-2.149-4.8-4.8-4.8v0z"></path>
</symbol>
<symbol id="icon-hand" viewBox="0 0 23 32">
<path d="M6.331 24.251c0-0.226 0.044-0.445 0.113-0.653l-2.133-1.236c-0.267 0.553-0.423 1.203-0.423 1.889 0 0.676 0.151 1.316 0.422 1.89l-0.011-0.027 2.133-1.236c-0.063-0.201-0.1-0.414-0.1-0.627zM4.687 26.798c0.742 1.054 1.908 1.766 3.245 1.887l0.017 0.001v-2.472c-0.439-0.088-0.835-0.314-1.129-0.653l-2.133 1.236zM11.972 21.685c-0.741-1.039-1.897-1.74-3.22-1.862l-0.017-0.001v2.466c0.427 0.082 0.816 0.307 1.104 0.634l2.133-1.236zM9.562 24.251c0-0.665-0.552-1.224-1.224-1.224s-1.224 0.558-1.224 1.224c0 0.64 0.527 1.224 1.224 1.224 0.709 0 1.224-0.584 1.224-1.224zM7.95 22.287v-2.466c-1.343 0.122-2.501 0.824-3.235 1.85l-0.009 0.014 2.133 1.236c0.285-0.318 0.666-0.544 1.098-0.632l0.013-0.002z"></path>
<path d="M22.526 17.512c-0.222-0.243-0.541-0.395-0.895-0.395-0.21 0-0.407 0.053-0.58 0.147l0.006-0.003-4.354 2.372c-0.32 0.176-0.703 0.169-1.016-0.013s-0.508-0.508-0.521-0.878l-0.427-15.416c0-0.002 0-0.004 0-0.006 0-0.856-0.694-1.55-1.55-1.55-0.854 0-1.546 0.69-1.55 1.543v13.001c-0.026 0.196-0.191 0.346-0.392 0.346s-0.367-0.15-0.392-0.344l-0-0.002v-14.764c-0.053-0.812-0.725-1.451-1.547-1.451s-1.493 0.639-1.546 1.447l-0 0.005v14.118c-0.026 0.196-0.191 0.346-0.392 0.346s-0.367-0.15-0.392-0.344l-0-0.002v-11.859c0-0.856-0.694-1.55-1.55-1.55s-1.55 0.694-1.55 1.55v0 12.511c-0.026 0.196-0.191 0.346-0.392 0.346s-0.367-0.15-0.392-0.344l-0-0.002v-10.46c-0.053-0.812-0.725-1.451-1.547-1.451s-1.493 0.639-1.546 1.447l-0 0.005 0.602 22.431c0.042 1.884 1.579 3.395 3.469 3.395 0.003 0 0.005 0 0.007 0h9.6c0.001 0 0.001 0 0.002 0 1.314 0 2.458-0.728 3.051-1.802l0.009-0.018 5.954-10.955c0.251-0.458 0.176-1.016-0.169-1.399zM8.345 29.496c-2.788-0.141-4.995-2.435-4.995-5.245s2.207-5.105 4.983-5.245l0.013-0c2.762 0.171 4.938 2.452 4.938 5.242s-2.175 5.072-4.923 5.242l-0.015 0.001z"></path>
<path d="M8.734 26.215v2.472c1.354-0.123 2.521-0.835 3.253-1.875l0.009-0.014-2.14-1.236c-0.289 0.339-0.684 0.565-1.129 0.653zM10.353 24.251c0 0.213-0.044 0.427-0.107 0.627l2.133 1.236c0.259-0.545 0.41-1.185 0.41-1.86 0-0.685-0.156-1.334-0.434-1.913l0.011 0.027-2.133 1.23c0.075 0.201 0.119 0.427 0.119 0.653z"></path>
</symbol>
<symbol id="icon-death-star" viewBox="0 0 31 32">
<path d="M20.656 4.442c-0.919 0.202-1.63 0.913-1.829 1.816l-0.003 0.016h1.832v-1.832zM21.634 4.442v1.832h1.832c-0.202-0.919-0.913-1.63-1.816-1.829l-0.016-0.003zM20.656 9.085v-1.832h-1.832c0.125 0.916 0.916 1.631 1.832 1.832zM23.467 7.253h-1.832v1.832c0.919-0.202 1.63-0.913 1.829-1.816l0.003-0.016zM31.373 15.492c-0.245-0.058-0.526-0.091-0.816-0.091-2.036 0-3.687 1.651-3.687 3.687 0 1.747 1.215 3.21 2.846 3.59l0.025 0.005c1.111-2.158 1.631-4.58 1.631-7.191z"></path>
<path d="M30.262 9.87c-2.384-5.829-8.008-9.862-14.575-9.87h-0.001c-4.9 0-9.286 2.221-12.154 5.754 1.305-0.063 2.679-0.132 4.116-0.326 0.326-0.063 0.653 0.188 0.715 0.584s-0.188 0.722-0.584 0.722c-1.832 0.264-3.595 0.389-5.296 0.389-0.326 0.458-0.59 0.916-0.784 1.38 2.874 0.126 6.011-0.138 9.217-0.791 0.326-0.063 0.715 0.132 0.784 0.527 0.063 0.326-0.132 0.715-0.527 0.778-3.263 0.659-6.664 1.048-10.064 0.791-0.195 0.452-0.326 0.847-0.458 1.305 4.838 0.521 9.412-0.264 12.744-1.111 0.326-0.063 0.722 0.126 0.784 0.458 0.063 0.326-0.126 0.715-0.458 0.784-4.373 1.111-9.016 1.631-13.396 1.111-0.063 0.389-0.126 0.847-0.195 1.242 4.969 0.715 10.585 0.188 16.207-1.569 0.326-0.132 0.722 0.063 0.853 0.389 0.125 0.326-0.063 0.722-0.395 0.853-5.421 1.694-11.244 2.478-16.797 1.631v1.506c7.385 1.042 22.287-1.38 30.262-6.538zM21.114 3.075c2.057 0 3.724 1.667 3.724 3.724s-1.667 3.724-3.724 3.724v0c-0.013 0-0.029 0-0.044 0-2.034 0-3.683-1.649-3.683-3.683 0-0.016 0-0.031 0-0.047l-0 0.002c0.025-2.047 1.679-3.7 3.725-3.721l0.002-0z"></path>
<path d="M25.882 19.087c0-0.001 0-0.003 0-0.004 0-2.564 2.079-4.643 4.643-4.643 0.277 0 0.549 0.024 0.812 0.071l-0.028-0.004c-0.063-1.173-0.326-2.284-0.659-3.394-7.969 4.969-22.419 7.774-30.519 6.733l0.195 1.173c5.164 0.916 11.043 0.458 16.991-1.506 0.326-0.125 0.722 0.069 0.853 0.395 0.125 0.326-0.063 0.722-0.395 0.853-5.421 1.757-11.369 2.478-17.054 1.631 0.125 0.458 0.326 0.916 0.521 1.374 5.095 0.847 10.064 0.195 13.66-0.653 0.326-0.063 0.722 0.125 0.784 0.458 0.063 0.326-0.126 0.715-0.521 0.784-4.317 0.979-8.828 1.368-13.271 0.784 0.264 0.521 0.59 0.979 0.847 1.437 3.137 0.389 6.607 0.326 10.328-0.264 0.395-0.063 0.722 0.195 0.722 0.521 0.063 0.326-0.194 0.722-0.521 0.722-1.956 0.364-4.206 0.572-6.505 0.572-1.023 0-2.037-0.041-3.039-0.122l0.132 0.009c0.475 0.539 0.966 1.031 1.488 1.49l0.018 0.016c2.284 0.125 4.706 0.063 7.247-0.333 0.326-0.063 0.722 0.201 0.722 0.59 0.063 0.326-0.194 0.722-0.59 0.722-1.895 0.257-3.727 0.389-5.622 0.389 2.401 1.577 5.338 2.525 8.496 2.547l0.006 0c0.002 0 0.004 0 0.006 0 5.776 0 10.822-3.121 13.545-7.769l0.040-0.074c-1.943-0.613-3.327-2.397-3.332-4.505v-0.001zM22.155 28.173c-0.002 0-0.004 0-0.006 0-1.771 0-3.206-1.436-3.206-3.206s1.436-3.206 3.206-3.206c1.771 0 3.206 1.436 3.206 3.206 0 0.002 0 0.004 0 0.007v-0c-0.028 1.756-1.444 3.172-3.197 3.2l-0.003 0z"></path>
<path d="M22.155 27.187c1.227 0 2.221-0.994 2.221-2.221s-0.994-2.221-2.221-2.221v0c-1.227 0-2.221 0.994-2.221 2.221s0.994 2.221 2.221 2.221v0z"></path>
</symbol>
<symbol id="icon-close-icon" viewBox="0 0 32 32">
<path d="M32 3.223l-3.223-3.223-12.777 12.777-12.777-12.777-3.223 3.223 12.777 12.777-12.777 12.777 3.223 3.223 12.777-12.777 12.777 12.777 3.223-3.223-12.777-12.777 12.777-12.777z"></path>
</symbol>
<symbol id="icon-at-at" viewBox="0 0 38 32">
<path d="M38.24 4.16l-5.040-1.68v-2.48h-11.68v2.48l-5.040 1.68v5.68h21.76v-5.68zM29.36 16.16l-0.32 2c0.286-0.105 0.616-0.165 0.961-0.165 0.596 0 1.15 0.181 1.61 0.491l-0.010-0.006 0.4-2.4h-2.64v0.080zM29.12 24.16l0.8 3.040h2.64l-0.96-3.52c-0.72 0.56-1.76 0.72-2.48 0.48zM32.64 28.72h-2.72c-0.442 0-0.8 0.358-0.8 0.8v0 0.96h4.4v-0.96c0-0.48-0.4-0.8-0.88-0.8zM23.44 28.88h-2.72c-0.442 0-0.8 0.358-0.8 0.8v0 0.96h4.4v-0.96c0-0.4-0.4-0.8-0.88-0.8zM31.36 21.12c0-0.839-0.681-1.52-1.52-1.52s-1.52 0.681-1.52 1.52c0 0.839 0.681 1.52 1.52 1.52v0c0.88 0.080 1.52-0.64 1.52-1.52zM14.88 20.64v-2.080l-1.2 1.040c0.4 0.4 0.72 0.96 0.8 1.52 0.16-0.16 0.24-0.32 0.4-0.48zM19.68 24.64c-0.48 0.64-1.2 1.040-2 1.12h-0.48c-0.8-0.009-1.528-0.311-2.083-0.803l0.003 0.003-0.56 3.12h2.64l0.48-2.32 2.080 1.44h3.68l-3.76-2.56zM11.52 20.24c-0.839 0-1.52 0.681-1.52 1.52s0.681 1.52 1.52 1.52c0.839 0 1.52-0.681 1.52-1.52v0c0-0.72-0.64-1.52-1.52-1.52zM34.080 25.76l0.8 3.040h2.64l-0.96-3.52c-0.504 0.346-1.127 0.553-1.799 0.553-0.241 0-0.477-0.027-0.703-0.077l0.021 0.004z"></path>
<path d="M18.8 20c0-0.080 0.4-1.92 0.32-1.76l0.4-2.080 2.64-1.6h10.4l1.92 1.68-0.32 1.76-0.32 1.68c0.286-0.105 0.616-0.165 0.961-0.165 0.596 0 1.15 0.181 1.61 0.491l-0.010-0.006v-0.16l0.4-2.24 1.44-3.12v-3.2h-21.76l-0.32 8.4c0.88-0.24 1.84-0.16 2.64 0.32zM37.6 30.24h-2.72c-0.442 0-0.8 0.358-0.8 0.8v0 0.96h4.32v-0.96c0-0.4-0.4-0.8-0.8-0.8zM17.36 29.76h-2.72c-0.442 0-0.8 0.358-0.8 0.8v0 0.96h4.4v-0.96c-0.080-0.4-0.4-0.8-0.88-0.8zM36.32 22.72c0-0.839-0.681-1.52-1.52-1.52s-1.52 0.681-1.52 1.52c0 0.839 0.681 1.52 1.52 1.52v0c0.8 0 1.52-0.72 1.52-1.52zM17.2 24.24c0.88 0 1.52-0.72 1.52-1.52 0-2-3.12-2.080-3.12 0 0.080 0.88 0.8 1.52 1.6 1.52zM0 7.2v2.64h9.44v-6.16h-5.92l-3.52 3.52zM5.52 4.96c1.2 0 2.24 0.96 2.24 2.24s-0.96 2.24-2.24 2.24c-1.237 0-2.24-1.003-2.24-2.24s1.003-2.24 2.24-2.24v0z"></path>
<path d="M5.52 8.24c0.64 0 1.12-0.48 1.12-1.12s-0.48-1.12-1.12-1.12c-0.56 0-1.12 0.48-1.12 1.12s0.48 1.12 1.12 1.12zM14.88 4.88h-1.12v3.76h1.12v-3.76zM12.24 4.88h-1.12v3.76h1.12v-3.76z"></path>
</symbol>
</defs>
</svg>
